<?xml version="1.0" encoding="UTF-8"?>
<svg xmlns="http://www.w3.org/2000/svg" viewBox="20.08 36.08 152 152">
  <defs>
    <style>
      .background {
        fill: #FFFFFFDE;
      }
      .foreground {
        fill: #000000DE;
      }
    </style>
  </defs>
  <circle class="background" cx="96.08" cy="112.08" r="76"/>
  <g>
    <path class="foreground" d="m147.36,125.23c0,25.35-22.96,45.91-51.28,45.91s-51.28-20.56-51.28-45.91c0-8.43,2.54-16.32,6.96-23.1-.07-.05-.14-.11-.21-.17-7.99-6.71-9.04-18.63-2.33-26.63,6.71-8,18.62-9.05,26.62-2.34,2.69,2.26,4.6,5.12,5.68,8.21,4.62-1.23,9.51-1.88,14.57-1.88s9.95.65,14.57,1.88c1.08-3.09,2.98-5.95,5.68-8.21,8-6.71,19.91-5.66,26.62,2.34,6.71,7.99,5.66,19.92-2.33,26.63-.07.06-.13.11-.21.17,4.42,6.79,6.96,14.68,6.96,23.1Z"/>
    <circle class="background" cx="63.69" cy="87.5" r="5.4"/>
    <circle class="background" cx="79.88" cy="141.45" r="5.4"/>
    <circle class="background" cx="112.28" cy="141.45" r="5.4"/>
    <circle class="background" cx="128.47" cy="87.5" r="5.4"/>
  </g>
</svg>